<?xml version="1.0" encoding="utf-8"?>
<!-- Generator: Adobe Illustrator 16.0.0, SVG Export Plug-In . SVG Version: 6.00 Build 0)  -->
<!DOCTYPE svg PUBLIC "-//W3C//DTD SVG 1.1//EN" "http://www.w3.org/Graphics/SVG/1.1/DTD/svg11.dtd">
<svg version="1.1" id="Layer_1" xmlns="http://www.w3.org/2000/svg" xmlns:xlink="http://www.w3.org/1999/xlink" x="0px" y="0px"
	 width="678px" height="631px" viewBox="0 0 678 631" enable-background="new 0 0 678 631" xml:space="preserve">
<g>
	<text transform="matrix(1 0.5774 0 1 538.7158 117.9561)" fill="#FFFFFF" font-family="'Montserrat-Bold'" font-size="27.1798">CSS</text>
	<path opacity="0.9" fill="#263238" d="M175.788,375.988c0,0,0.244-0.95,0.244,3.971c0,3.055,1.271,6.294,5.6,8.761l216.56,123.038
		c6.937,3.944,17.517,4.269,23.53,0.75l111.377-65.501c3.187-1.895,3.954-4.426,3.954-7.101c0-6.416,0.034-4.385,0.034-4.385
		L314.852,313.456c-6.927-3.949-17.517-4.273-23.54-0.76L175.788,375.988z"/>
	<path fill="#FFFFFF" d="M179.944,369.781c-6.021,3.526-5.266,9.636,1.662,13.587l216.551,123.03
		c6.93,3.94,17.541,4.265,23.529,0.758l111.362-65.509c6.017-3.53,5.268-9.652-1.652-13.576l-216.579-123.05
		c-6.912-3.94-17.521-4.28-23.545-0.738L179.944,369.781z"/>
	<path fill="#617377" d="M282.976,324.106c1.893-1.109,5.221-0.989,7.38,0.221l31.364,17.832c2.18,1.216,2.395,3.135,0.497,4.239
		l-28.058,16.472c-1.869,1.098-5.189,0.989-7.35-0.234l-31.338-17.811c-2.169-1.238-2.43-3.147-0.543-4.265L282.976,324.106z
		 M451.189,429.398c-1.881,1.109-1.663,3.007,0.52,4.251l31.348,17.804c2.168,1.247,5.469,1.342,7.369,0.243l8.397-4.949
		c1.906-1.092,1.68-3.026-0.503-4.247l-31.355-17.83c-2.166-1.216-5.455-1.322-7.361-0.21L451.189,429.398z M428.768,416.639
		c-1.906,1.112-1.635,3.026,0.518,4.272l9.708,5.508c2.177,1.22,5.475,1.337,7.376,0.221l8.417-4.93
		c1.886-1.101,1.659-3.015-0.525-4.259l-9.693-5.514c-2.153-1.235-5.491-1.327-7.367-0.229L428.768,416.639z M406.769,404.141
		c-1.906,1.104-1.694,3.016,0.49,4.234l9.691,5.536c2.176,1.229,5.502,1.33,7.396,0.221l8.392-4.934
		c1.909-1.112,1.68-3.012-0.499-4.259l-9.689-5.499c-2.169-1.252-5.479-1.355-7.376-0.237L406.769,404.141z M384.697,391.617
		c-1.863,1.11-1.616,3.021,0.534,4.263l9.715,5.503c2.152,1.227,5.483,1.347,7.354,0.24l8.44-4.941
		c1.858-1.108,1.636-3.023-0.524-4.262l-9.715-5.505c-2.173-1.238-5.499-1.33-7.375-0.229L384.697,391.617z M362.686,379.102
		c-1.902,1.104-1.636,3.023,0.54,4.253l9.683,5.514c2.188,1.252,5.482,1.342,7.38,0.234l8.396-4.938
		c1.899-1.112,1.659-3.013-0.493-4.242l-9.714-5.527c-2.156-1.228-5.487-1.339-7.385-0.222L362.686,379.102z M340.65,366.587
		c-1.886,1.104-1.638,3.013,0.507,4.262l9.706,5.505c2.192,1.241,5.504,1.342,7.385,0.234l8.434-4.929
		c1.852-1.115,1.629-3.038-0.558-4.259l-9.673-5.531c-2.178-1.216-5.506-1.321-7.378-0.215L340.65,366.587z M318.632,354.072
		c-1.867,1.112-1.662,3.024,0.533,4.254l9.684,5.511c2.191,1.235,5.483,1.347,7.4,0.235l8.413-4.936
		c1.862-1.1,1.63-3.021-0.535-4.27l-9.707-5.479c-2.165-1.247-5.495-1.353-7.37-0.255L318.632,354.072z M409.284,428.278
		c-1.884,1.12-1.658,3.007,0.492,4.253l53.605,30.458c2.172,1.238,5.533,1.336,7.415,0.234l8.389-4.943
		c1.897-1.09,1.638-3.003-0.533-4.255l-53.595-30.451c-2.17-1.232-5.471-1.327-7.358-0.227L409.284,428.278z M387.084,415.669
		c-1.886,1.103-1.638,3.026,0.522,4.25l9.719,5.525c2.164,1.232,5.48,1.33,7.356,0.223l8.424-4.943
		c1.862-1.106,1.637-3.013-0.534-4.253l-9.705-5.503c-2.18-1.24-5.476-1.36-7.344-0.257L387.084,415.669z M365.052,403.149
		c-1.885,1.103-1.621,3.029,0.546,4.264l9.687,5.512c2.18,1.229,5.5,1.335,7.379,0.226l8.389-4.938
		c1.914-1.102,1.685-3.026-0.512-4.246l-9.687-5.519c-2.165-1.229-5.491-1.338-7.387-0.237L365.052,403.149z M343.011,390.643
		c-1.865,1.094-1.639,3.016,0.538,4.254l9.701,5.519c2.162,1.21,5.488,1.319,7.368,0.218l8.426-4.939
		c1.855-1.09,1.616-3.017-0.528-4.246l-9.713-5.521c-2.177-1.225-5.462-1.33-7.358-0.24L343.011,390.643z M321.008,378.125
		c-1.876,1.102-1.647,3.027,0.521,4.246l9.693,5.511c2.181,1.232,5.501,1.348,7.406,0.254l8.393-4.949
		c1.881-1.115,1.639-3.029-0.533-4.25l-9.723-5.514c-2.15-1.229-5.465-1.345-7.353-0.249L321.008,378.125z M298.972,365.612
		c-1.881,1.112-1.646,3.009,0.537,4.25l9.678,5.511c2.176,1.232,5.488,1.336,7.385,0.237l8.42-4.963
		c1.875-1.093,1.631-2.998-0.507-4.234l-9.737-5.514c-2.185-1.232-5.488-1.344-7.369-0.234L298.972,365.612z M492.477,430.153
		c-1.866,1.112-1.632,3.015,0.536,4.244l9.697,5.525c2.164,1.221,5.509,1.33,7.37,0.235l8.434-4.936
		c1.875-1.096,1.635-3.035-0.55-4.272l-9.686-5.506c-2.189-1.228-5.483-1.333-7.37-0.221L492.477,430.153z M470.444,417.634
		c-1.887,1.106-1.621,3.018,0.545,4.247l9.716,5.514c2.152,1.219,5.441,1.354,7.354,0.234l8.415-4.946
		c1.883-1.101,1.67-2.995-0.545-4.244l-9.658-5.506c-2.181-1.24-5.514-1.345-7.412-0.237L470.444,417.634z M448.42,405.139
		c-1.881,1.087-1.632,2.981,0.545,4.222l9.697,5.504c2.162,1.249,5.466,1.357,7.361,0.254l8.411-4.946
		c1.889-1.102,1.677-3.008-0.522-4.251l-9.697-5.506c-2.174-1.24-5.466-1.353-7.39-0.245L448.42,405.139z M426.392,392.594
		c-1.871,1.126-1.656,3.018,0.539,4.267l9.701,5.506c2.166,1.229,5.485,1.341,7.368,0.243l8.419-4.954
		c1.866-1.107,1.646-3.017-0.54-4.237l-9.672-5.522c-2.199-1.232-5.507-1.338-7.399-0.232L426.392,392.594z M404.361,380.09
		c-1.884,1.09-1.643,3.011,0.537,4.246l9.693,5.505c2.188,1.241,5.5,1.344,7.387,0.257l8.394-4.957
		c1.918-1.099,1.665-3.016-0.497-4.234l-9.696-5.525c-2.175-1.234-5.494-1.335-7.392-0.24L404.361,380.09z M382.321,367.567
		c-1.863,1.118-1.619,3.029,0.535,4.257l9.708,5.491c2.171,1.246,5.498,1.354,7.365,0.249l8.41-4.931
		c1.9-1.105,1.667-3.034-0.514-4.247l-9.689-5.517c-2.179-1.238-5.504-1.324-7.385-0.234L382.321,367.567z M360.312,355.051
		c-1.893,1.106-1.636,3.026,0.539,4.242l9.704,5.53c2.165,1.229,5.473,1.342,7.374,0.229l8.378-4.949
		c1.898-1.084,1.673-2.993-0.497-4.239l-9.699-5.506c-2.158-1.247-5.495-1.345-7.401-0.237L360.312,355.051z M338.274,342.553
		c-1.882,1.093-1.633,3.017,0.53,4.231l9.704,5.514c2.163,1.235,5.477,1.345,7.366,0.246l8.419-4.938
		c1.863-1.115,1.653-3.027-0.506-4.252l-9.712-5.516c-2.182-1.235-5.487-1.33-7.367-0.235L338.274,342.553z M316.271,330.03
		c-1.915,1.087-1.664,3.019,0.524,4.262l9.695,5.494c2.173,1.238,5.494,1.345,7.362,0.237l8.418-4.948
		c1.882-1.099,1.66-3.005-0.523-4.234l-9.688-5.521c-2.183-1.232-5.492-1.333-7.382-0.235L316.271,330.03z M294.221,317.511
		c-1.886,1.106-1.644,3.007,0.509,4.233l9.717,5.534c2.146,1.235,5.492,1.335,7.376,0.235l8.409-4.929
		c1.893-1.117,1.658-3.048-0.514-4.262l-9.707-5.524c-2.162-1.232-5.484-1.322-7.381-0.227L294.221,317.511z M433.521,464.764
		c-1.875,1.107-1.641,3.002,0.526,4.246l9.69,5.505c2.172,1.238,5.479,1.347,7.364,0.24l8.443-4.936
		c1.847-1.114,1.627-3.034-0.52-4.27l-9.717-5.5c-2.198-1.232-5.493-1.33-7.356-0.226L433.521,464.764z M411.521,452.253
		c-1.892,1.109-1.693,3.024,0.483,4.223l9.689,5.533c2.173,1.215,5.511,1.339,7.395,0.223l8.398-4.932
		c1.907-1.095,1.678-2.999-0.504-4.254l-9.733-5.507c-2.125-1.233-5.444-1.322-7.345-0.239L411.521,452.253z M389.461,439.716
		c-1.873,1.112-1.638,3.029,0.512,4.254l9.714,5.521c2.18,1.244,5.5,1.351,7.358,0.243l8.451-4.96
		c1.837-1.104,1.617-2.996-0.528-4.253l-9.721-5.494c-2.187-1.255-5.487-1.361-7.344-0.263L389.461,439.716z M367.455,427.199
		c-1.917,1.112-1.68,3.01,0.492,4.259l9.707,5.517c2.18,1.229,5.487,1.339,7.381,0.237l8.393-4.943
		c1.899-1.106,1.678-3.04-0.51-4.26l-9.7-5.496c-2.173-1.244-5.506-1.353-7.376-0.248L367.455,427.199z M345.383,414.68
		c-1.849,1.098-1.643,3.026,0.528,4.267l9.729,5.514c2.171,1.232,5.485,1.314,7.346,0.227l8.427-4.943
		c1.897-1.096,1.65-3.021-0.526-4.245l-9.707-5.511c-2.176-1.238-5.496-1.358-7.364-0.24L345.383,414.68z M323.374,402.167
		c-1.875,1.102-1.654,3.02,0.525,4.26l9.697,5.5c2.16,1.235,5.479,1.345,7.357,0.235l8.437-4.922
		c1.874-1.127,1.65-3.035-0.544-4.268l-9.691-5.512c-2.157-1.207-5.502-1.33-7.355-0.226L323.374,402.167z M301.353,389.65
		c-1.895,1.112-1.662,3.026,0.5,4.246l9.695,5.516c2.186,1.238,5.506,1.336,7.383,0.24l8.434-4.94
		c1.885-1.11,1.623-3.01-0.521-4.253l-9.729-5.518c-2.18-1.24-5.461-1.33-7.363-0.234L301.353,389.65z M279.332,377.143
		c-1.901,1.095-1.677,3.015,0.515,4.244l9.707,5.506c2.153,1.249,5.465,1.35,7.355,0.248l8.434-4.939
		c1.864-1.107,1.634-3.02-0.539-4.24l-9.71-5.527c-2.173-1.238-5.499-1.337-7.362-0.229L279.332,377.143z M257.278,364.636
		c-1.881,1.087-1.635,3.014,0.502,4.246l9.727,5.514c2.203,1.229,5.48,1.324,7.359,0.234l8.419-4.95
		c1.912-1.095,1.647-3.007-0.491-4.23l-9.717-5.541c-2.184-1.214-5.514-1.331-7.367-0.227L257.278,364.636z M235.255,352.113
		c-1.859,1.087-1.668,3.026,0.518,4.251l9.701,5.505c2.162,1.222,5.49,1.35,7.361,0.244l8.436-4.947
		c1.924-1.106,1.642-3.019-0.538-4.25l-9.69-5.518c-2.167-1.227-5.485-1.341-7.377-0.234L235.255,352.113z M259.603,418.589
		l71.848,40.823l35.344-21.018l-71.848-40.815L259.603,418.589z"/>
	<g opacity="0.9">
		<path fill="#263238" d="M321.804,283.64c-1.91,8.058,1.965,17.719,8.605,21.438l206.113,123.877c0,0,3.772-1.593,6.875-4.074
			c1.976-1.59,3.521-4.064,4.268-7.214l36.395-154.98c1.911-8.054-1.975-17.705-8.566-21.459L368.57,124.202
			c-3.329-1.882-6.724-1.935-9.545-0.509c-2.778,1.411-5.76,3.826-5.76,3.826L321.804,283.64z"/>
	</g>
	<path fill="#FFFFFF" d="M356.085,137.188l210.974,119.295c3.563,2.045,5.285,7.916,4.776,10.08l-35.547,151.451L325.351,298.697
		c-3.621-2.007-5.32-7.886-4.805-10.065L356.085,137.188 M357.938,125.523c-4.215,0.494-7.792,3.873-9.072,9.281l-36.389,154.947
		c-1.906,8.054,1.974,17.712,8.6,21.456l206.907,117.063c2.157,1.222,4.404,1.655,6.459,1.415c4.22-0.495,7.783-3.859,9.065-9.259
		l36.395-154.983c1.903-8.049-1.976-17.695-8.582-21.462L364.404,126.961C362.209,125.739,359.993,125.283,357.938,125.523
		L357.938,125.523z"/>
	<path fill="#27DEBF" d="M356.085,137.188l210.974,119.295c3.563,2.045,5.285,7.916,4.776,10.08l-35.547,151.451L325.351,298.697
		c-3.621-2.007-5.32-7.886-4.805-10.065L356.085,137.188"/>
	<path opacity="0.5" fill="#FFFFFF" d="M356.085,137.188l210.974,119.295c3.563,2.045,5.285,7.916,4.776,10.08l-35.547,151.451
		L325.351,298.697c-3.621-2.007-5.32-7.886-4.805-10.065L356.085,137.188"/>
	<g>
		<g>
			<g opacity="0.2">
				<polygon fill="#27DEBF" points="282.161,112.375 282.161,237.57 431.794,323.949 431.794,198.762 				"/>
			</g>
			<g>
				<polygon fill="#27DEBF" points="282.161,112.375 282.161,127.922 431.794,214.306 431.794,198.762 				"/>
			</g>
			<g>
				<path fill="#FFFFFF" d="M403.962,189.756v0.83l-3.168-1.828v-0.834L403.962,189.756z"/>
				<path fill="#FFFFFF" d="M416.347,197.635c0,2.295-1.59,2.378-3.093,1.512c-1.68-0.972-2.975-2.949-2.975-4.911
					c0-2.079,1.36-2.513,3.077-1.52C415.14,193.744,416.347,195.735,416.347,197.635z M411.42,194.855
					c0,1.357,0.782,2.836,1.886,3.474c1.078,0.623,1.886,0.073,1.886-1.321c0-1.055-0.525-2.691-1.859-3.461
					C411.997,192.775,411.42,193.674,411.42,194.855z"/>
				<path fill="#FFFFFF" d="M421.019,197.281l0.887,1.844c0.229,0.48,0.424,0.912,0.628,1.375l0.038,0.023
					c0.206-0.254,0.412-0.457,0.618-0.67l0.872-0.818l1.217,0.703l-2.115,1.779l2.181,4.466l-1.282-0.74l-0.912-1.923
					c-0.244-0.5-0.449-0.965-0.667-1.463l-0.025-0.015c-0.206,0.253-0.424,0.462-0.655,0.699l-0.896,0.882l-1.245-0.721l2.207-1.893
					l-2.104-4.258L421.019,197.281z"/>
			</g>
		</g>
		<g>
			<g>
				<polygon fill="#FFFFFF" points="342.515,185.127 319.346,171.75 319.346,167.969 342.515,181.344 				"/>
				<polygon fill="#FFFFFF" points="315.231,169.375 297.829,159.327 297.829,155.545 315.231,165.593 				"/>
				<polygon fill="#FFFFFF" points="397.078,216.629 357.446,193.747 357.446,189.965 397.078,212.847 				"/>
				<polygon fill="#FFFFFF" points="353.332,191.373 346.628,187.501 346.628,183.719 353.332,187.59 				"/>
				<polygon fill="#FFFFFF" points="407.896,222.875 401.191,219.005 401.191,215.223 407.896,219.093 				"/>
			</g>
			<g>
				<polygon fill="#FFFFFF" points="315.231,192.43 297.829,182.382 297.829,178.6 315.231,188.646 				"/>
				<polygon fill="#FFFFFF" points="342.515,208.183 319.346,194.805 319.346,191.022 342.515,204.398 				"/>
				<polygon fill="#FFFFFF" points="380.613,230.178 357.446,216.801 357.446,213.02 380.613,226.395 				"/>
				<polygon fill="#FFFFFF" points="353.332,214.426 346.628,210.559 346.628,206.773 353.332,210.645 				"/>
			</g>
			<g>
				<polygon fill="#FFFFFF" points="315.231,184.744 297.829,174.697 297.829,170.916 315.231,180.961 				"/>
				<polygon fill="#FFFFFF" points="326.05,190.992 319.346,187.119 319.346,183.336 326.05,187.209 				"/>
				<polygon fill="#FFFFFF" points="388.846,227.246 340.981,199.611 340.981,195.828 388.846,223.464 				"/>
				<polygon fill="#FFFFFF" points="336.868,197.236 330.164,193.365 330.164,189.585 336.868,193.452 				"/>
				<polygon fill="#FFFFFF" points="416.129,242.998 392.96,229.621 392.96,225.839 416.129,239.215 				"/>
			</g>
			<g>
				<polygon fill="#FFFFFF" points="353.332,199.059 330.164,185.684 330.164,181.899 353.332,195.276 				"/>
				<polygon fill="#FFFFFF" points="380.613,214.809 357.446,201.434 357.446,197.65 380.613,211.026 				"/>
				<polygon fill="#FFFFFF" points="315.231,177.059 297.829,167.013 297.829,163.231 315.231,173.277 				"/>
				<polygon fill="#FFFFFF" points="326.05,183.309 319.346,179.435 319.346,175.652 326.05,179.523 				"/>
			</g>
			<g>
				<polygon fill="#FFFFFF" points="315.231,200.115 297.829,190.068 297.829,186.284 315.231,196.334 				"/>
				<polygon fill="#FFFFFF" points="346.628,214.459 386.261,237.342 386.261,241.123 346.628,218.24 				"/>
				<polygon fill="#FFFFFF" points="319.346,198.708 342.515,212.084 342.515,215.867 319.346,202.49 				"/>
				<polygon fill="#FFFFFF" points="390.372,239.716 397.077,243.585 397.077,247.369 390.372,243.498 				"/>
			</g>
			<g>
				<polygon fill="#FFFFFF" points="315.231,238.541 297.829,228.491 297.829,224.707 315.231,234.757 				"/>
				<polygon fill="#FFFFFF" points="384.728,274.879 407.896,288.251 407.896,292.032 384.728,278.662 				"/>
				<polygon fill="#FFFFFF" points="330.164,243.377 369.797,266.259 369.797,270.041 330.164,247.159 				"/>
				<polygon fill="#FFFFFF" points="373.911,268.633 380.613,272.505 380.613,276.287 373.911,272.417 				"/>
				<polygon fill="#FFFFFF" points="319.346,237.133 326.05,241.002 326.05,244.784 319.346,240.915 				"/>
			</g>
			<g>
				<polygon fill="#FFFFFF" points="315.231,215.484 297.829,205.438 297.829,201.654 315.231,211.704 				"/>
				<polygon fill="#FFFFFF" points="357.446,236.076 380.613,249.451 380.613,253.233 357.446,239.857 				"/>
				<polygon fill="#FFFFFF" points="319.346,214.078 342.515,227.455 342.515,231.238 319.346,217.86 				"/>
				<polygon fill="#FFFFFF" points="346.628,229.83 353.332,233.7 353.332,237.481 346.628,233.613 				"/>
			</g>
			<g>
				<polygon fill="#FFFFFF" points="315.231,223.17 297.829,213.121 297.829,209.34 315.231,219.387 				"/>
				<polygon fill="#FFFFFF" points="409.423,273.77 416.125,277.637 416.125,281.42 409.423,277.551 				"/>
				<polygon fill="#FFFFFF" points="346.628,237.515 394.491,265.148 394.491,268.932 346.628,241.297 				"/>
				<polygon fill="#FFFFFF" points="398.605,267.523 405.309,271.394 405.309,275.178 398.605,271.307 				"/>
				<polygon fill="#FFFFFF" points="319.346,221.762 342.515,235.139 342.515,238.922 319.346,225.546 				"/>
			</g>
			<g>
				<polygon fill="#FFFFFF" points="315.231,230.855 297.829,220.807 297.829,217.023 315.231,227.073 				"/>
				<polygon fill="#FFFFFF" points="338.395,240.447 361.563,253.821 361.563,257.604 338.395,244.229 				"/>
				<polygon fill="#FFFFFF" points="319.346,229.447 334.28,238.07 334.28,241.853 319.346,233.23 				"/>
				<polygon fill="#FFFFFF" points="365.677,256.197 372.381,260.067 372.381,263.85 365.677,259.979 				"/>
			</g>
			<g>
				<polygon fill="#FFFFFF" points="315.231,207.8 297.829,197.752 297.829,193.969 315.231,204.018 				"/>
				<polygon fill="#FFFFFF" points="369.797,239.301 330.164,216.422 330.164,212.638 369.797,235.52 				"/>
				<polygon fill="#FFFFFF" points="397.078,255.054 373.911,241.676 373.911,237.894 397.078,251.271 				"/>
				<polygon fill="#FFFFFF" points="326.05,214.047 319.346,210.176 319.346,206.392 326.05,210.265 				"/>
			</g>
		</g>
	</g>
	<g opacity="0.5">
		<g>
			<polygon fill="#FFFFFF" points="118.268,273.676 62.603,241.539 62.603,232.449 118.268,264.588 			"/>
			<polygon fill="#FFFFFF" points="52.718,235.832 10.901,211.691 10.901,202.602 52.718,226.744 			"/>
			<polygon fill="#FFFFFF" points="249.364,349.364 154.143,294.386 154.143,285.297 249.364,340.275 			"/>
			<polygon fill="#FFFFFF" points="144.258,288.679 128.151,279.381 128.151,270.295 144.258,279.594 			"/>
			<polygon fill="#FFFFFF" points="275.355,364.37 259.249,355.07 259.249,345.982 275.355,355.282 			"/>
		</g>
		<g>
			<polygon fill="#FFFFFF" points="52.718,291.219 10.901,267.082 10.901,257.994 52.718,282.131 			"/>
			<polygon fill="#FFFFFF" points="118.268,329.065 62.603,296.925 62.603,287.837 118.268,319.978 			"/>
			<polygon fill="#FFFFFF" points="209.807,381.916 154.143,349.777 154.143,340.689 209.807,372.824 			"/>
			<polygon fill="#FFFFFF" points="144.258,344.07 128.151,334.772 128.151,325.685 144.258,334.982 			"/>
		</g>
		<g>
			<polygon fill="#FFFFFF" points="52.718,272.757 10.901,248.619 10.901,239.531 52.718,263.668 			"/>
			<polygon fill="#FFFFFF" points="78.708,287.765 62.603,278.462 62.603,269.375 78.708,278.678 			"/>
			<polygon fill="#FFFFFF" points="229.581,374.873 114.585,308.473 114.585,299.385 229.581,365.785 			"/>
			<polygon fill="#FFFFFF" points="104.7,302.767 88.593,293.472 88.593,284.383 104.7,293.678 			"/>
			<polygon fill="#FFFFFF" points="295.135,412.715 239.47,380.579 239.47,371.488 295.135,403.627 			"/>
		</g>
		<g>
			<polygon fill="#FFFFFF" points="144.258,307.146 88.593,275.012 88.593,265.924 144.258,298.058 			"/>
			<polygon fill="#FFFFFF" points="209.807,344.99 154.143,312.852 154.143,303.764 209.807,335.902 			"/>
			<polygon fill="#FFFFFF" points="52.718,254.295 10.901,230.156 10.901,221.068 52.718,245.205 			"/>
			<polygon fill="#FFFFFF" points="78.708,269.305 62.603,260 62.603,250.912 78.708,260.217 			"/>
		</g>
		<g>
			<polygon fill="#FFFFFF" points="52.718,309.687 10.901,285.543 10.901,276.457 52.718,300.599 			"/>
			<polygon fill="#FFFFFF" points="128.151,344.149 223.374,399.125 223.374,408.213 128.151,353.237 			"/>
			<polygon fill="#FFFFFF" points="62.603,306.304 118.268,338.443 118.268,347.531 62.603,315.392 			"/>
			<polygon fill="#FFFFFF" points="233.254,404.831 249.36,414.129 249.36,423.217 233.254,413.919 			"/>
		</g>
		<g>
			<polygon fill="#FFFFFF" points="52.718,402.005 10.901,377.86 10.901,368.772 52.718,392.917 			"/>
			<polygon fill="#FFFFFF" points="219.69,489.317 275.355,521.456 275.355,530.544 219.69,498.406 			"/>
			<polygon fill="#FFFFFF" points="88.593,413.625 183.815,468.604 183.815,477.692 88.593,422.713 			"/>
			<polygon fill="#FFFFFF" points="193.7,474.311 209.807,483.611 209.807,492.699 193.7,483.398 			"/>
			<polygon fill="#FFFFFF" points="62.603,398.625 78.708,407.919 78.708,417.01 62.603,407.713 			"/>
		</g>
		<g>
			<polygon fill="#FFFFFF" points="52.718,346.614 10.901,322.474 10.901,313.386 52.718,337.526 			"/>
			<polygon fill="#FFFFFF" points="154.143,396.084 209.807,428.222 209.807,437.31 154.143,405.172 			"/>
			<polygon fill="#FFFFFF" points="62.603,343.232 118.268,375.373 118.268,384.461 62.603,352.32 			"/>
			<polygon fill="#FFFFFF" points="128.151,381.079 144.258,390.377 144.258,399.465 128.151,390.168 			"/>
		</g>
		<g>
			<polygon fill="#FFFFFF" points="52.718,365.078 10.901,340.935 10.901,331.847 52.718,355.989 			"/>
			<polygon fill="#FFFFFF" points="279.023,486.648 295.13,495.946 295.13,505.034 279.023,495.739 			"/>
			<polygon fill="#FFFFFF" points="128.151,399.543 243.149,465.938 243.149,475.026 128.151,408.631 			"/>
			<polygon fill="#FFFFFF" points="253.032,471.642 269.14,480.945 269.14,490.033 253.032,480.732 			"/>
			<polygon fill="#FFFFFF" points="62.603,361.696 118.268,393.837 118.268,402.925 62.603,370.784 			"/>
		</g>
		<g>
			<polygon fill="#FFFFFF" points="52.718,383.544 10.901,359.399 10.901,350.308 52.718,374.453 			"/>
			<polygon fill="#FFFFFF" points="108.368,406.583 164.032,438.722 164.032,447.81 108.368,415.674 			"/>
			<polygon fill="#FFFFFF" points="62.603,380.16 98.484,400.88 98.484,409.968 62.603,389.248 			"/>
			<polygon fill="#FFFFFF" points="173.917,444.428 190.023,453.729 190.023,462.816 173.917,453.516 			"/>
		</g>
		<g>
			<polygon fill="#FFFFFF" points="52.718,328.15 10.901,304.007 10.901,294.919 52.718,319.059 			"/>
			<polygon fill="#FFFFFF" points="183.815,403.836 88.593,348.861 88.593,339.773 183.815,394.748 			"/>
			<polygon fill="#FFFFFF" points="249.364,441.684 193.7,409.543 193.7,400.455 249.364,432.596 			"/>
			<polygon fill="#FFFFFF" points="78.708,343.159 62.603,333.854 62.603,324.766 78.708,334.071 			"/>
		</g>
	</g>
	<text transform="matrix(1 0.5774 0 1 509.2783 272.9863)" fill="#FFFFFF" font-family="'Montserrat-Bold'" font-size="37.6098">JAVA</text>
	<text transform="matrix(1 0.5774 0 1 180.0015 147.2041)" fill="#FFFFFF" font-family="'Montserrat-Bold'" font-size="18.9981">PYTHON</text>
	<text transform="matrix(1 0.5774 0 1 410.6689 121.4893)" fill="#FFFFFF" font-family="'Montserrat-Bold'" font-size="35.1587">HTML</text>
	<text transform="matrix(1 0.5774 0 1 144.0713 215.7441)" fill="#FFFFFF" font-family="'Montserrat-Bold'" font-size="37.5907">PHP</text>
	<g>
		
			<text transform="matrix(1.0195 0.5422 0 1 631.1289 453.4063)" fill="#FFFFFF" font-family="'Montserrat-Bold'" font-size="31.3255">{ }</text>
	</g>
	<g>
		
			<text transform="matrix(1.0195 0.5422 0 1 574.2324 192.3896)" fill="#FFFFFF" font-family="'Montserrat-Bold'" font-size="31.3255">Js</text>
	</g>
	<g>
		
			<text transform="matrix(1.0195 0.5422 0 1 273.0366 280.9443)" fill="#FFFFFF" font-family="'Montserrat-Bold'" font-size="26.6267">( )</text>
	</g>
	<g>
		
			<text transform="matrix(1.0195 0.5422 0 1 422.916 485.0088)" fill="#FFFFFF" font-family="'Montserrat-Bold'" font-size="31.3255">&lt;/&gt;</text>
	</g>
	<g>
		<g>
			<g opacity="0.2">
				<polygon fill="#27DEBF" points="460.132,290.761 460.132,431.413 616.582,521.735 616.582,381.085 				"/>
			</g>
			<g>
				<polygon fill="#27DEBF" points="460.132,290.761 460.132,307.017 616.582,397.336 616.582,381.085 				"/>
			</g>
			<g>
				<path fill="#FFFFFF" d="M587.481,371.664v0.87l-3.314-1.906v-0.874L587.481,371.664z"/>
				<path fill="#FFFFFF" d="M600.433,379.902c0,2.404-1.663,2.488-3.236,1.582c-1.752-1.008-3.107-3.082-3.107-5.134
					c0-2.171,1.42-2.624,3.217-1.587C599.169,375.837,600.433,377.919,600.433,379.902z M595.279,377
					c0,1.422,0.819,2.967,1.973,3.632c1.127,0.654,1.97,0.075,1.97-1.38c0-1.104-0.548-2.814-1.944-3.622
					C595.883,374.825,595.279,375.765,595.279,377z"/>
				<path fill="#FFFFFF" d="M605.317,379.537l0.925,1.925c0.243,0.504,0.444,0.957,0.66,1.439l0.039,0.022
					c0.215-0.263,0.43-0.475,0.643-0.698l0.91-0.854l1.274,0.734l-2.21,1.861l2.28,4.666l-1.345-0.771l-0.949-2.012
					c-0.258-0.525-0.47-1.01-0.698-1.529l-0.022-0.017c-0.215,0.263-0.447,0.483-0.688,0.729l-0.937,0.922l-1.305-0.748l2.309-1.982
					l-2.2-4.448L605.317,379.537z"/>
			</g>
		</g>
		<g>
			<g>
				<polygon fill="#FFFFFF" points="487.636,386.451 471.934,377.388 471.934,373.973 487.636,383.039 				"/>
				<polygon fill="#FFFFFF" points="487.636,379.518 471.934,370.452 471.934,367.037 487.636,376.105 				"/>
				<polygon fill="#FFFFFF" points="487.636,393.387 471.934,384.321 471.934,380.909 487.636,389.975 				"/>
				<polygon fill="#FFFFFF" points="487.636,428.057 471.934,418.991 471.934,415.579 487.636,424.647 				"/>
				<polygon fill="#FFFFFF" points="487.636,407.254 471.934,398.19 471.934,394.776 487.636,403.845 				"/>
				<polygon fill="#FFFFFF" points="487.636,414.189 471.934,405.124 471.934,401.71 487.636,410.778 				"/>
				<polygon fill="#FFFFFF" points="487.636,421.123 471.934,412.055 471.934,408.643 487.636,417.711 				"/>
				<polygon fill="#FFFFFF" points="487.636,400.32 471.934,391.258 471.934,387.843 487.636,396.908 				"/>
			</g>
			<g>
				<polygon fill="#FFFFFF" points="511.066,406.913 495.363,397.848 495.363,394.436 511.066,403.498 				"/>
				<polygon fill="#FFFFFF" points="511.066,441.586 495.363,432.518 495.363,429.105 511.066,438.174 				"/>
				<polygon fill="#FFFFFF" points="511.066,420.785 495.363,411.717 495.363,408.303 511.066,417.371 				"/>
				<polygon fill="#FFFFFF" points="511.066,427.716 495.363,418.653 495.363,415.238 511.066,424.302 				"/>
				<polygon fill="#FFFFFF" points="511.066,434.652 495.363,425.587 495.363,422.172 511.066,431.237 				"/>
				<polygon fill="#FFFFFF" points="511.066,413.85 495.363,404.781 495.363,401.365 511.066,410.435 				"/>
			</g>
			<g>
				<polygon fill="#FFFFFF" points="534.496,413.502 518.794,404.442 518.794,401.027 534.496,410.091 				"/>
				<polygon fill="#FFFFFF" points="534.496,406.571 518.794,397.506 518.794,394.092 534.496,403.157 				"/>
				<polygon fill="#FFFFFF" points="534.496,420.438 518.794,411.376 518.794,407.964 534.496,417.026 				"/>
				<polygon fill="#FFFFFF" points="534.496,455.115 518.794,446.046 518.794,442.631 534.496,451.699 				"/>
				<polygon fill="#FFFFFF" points="534.496,434.309 518.794,425.242 518.794,421.83 534.496,430.896 				"/>
				<polygon fill="#FFFFFF" points="534.496,441.245 518.794,432.18 518.794,428.764 534.496,437.829 				"/>
				<polygon fill="#FFFFFF" points="534.496,448.179 518.794,439.116 518.794,435.7 534.496,444.763 				"/>
				<polygon fill="#FFFFFF" points="534.496,427.375 518.794,418.309 518.794,414.895 534.496,423.963 				"/>
			</g>
			<g>
				<polygon fill="#FFFFFF" points="557.923,468.638 542.221,459.572 542.221,456.162 557.923,465.223 				"/>
				<polygon fill="#FFFFFF" points="557.923,454.773 542.221,445.705 542.221,442.29 557.923,451.358 				"/>
				<polygon fill="#FFFFFF" points="557.923,461.704 542.221,452.639 542.221,449.227 557.923,458.292 				"/>
			</g>
			<g>
				<polygon fill="#FFFFFF" points="581.354,419.758 565.651,410.69 565.651,407.276 581.354,416.342 				"/>
				<polygon fill="#FFFFFF" points="581.354,440.563 565.651,431.491 565.651,428.079 581.354,437.147 				"/>
				<polygon fill="#FFFFFF" points="581.354,433.627 565.651,424.555 565.651,421.146 581.354,430.211 				"/>
				<polygon fill="#FFFFFF" points="581.354,426.691 565.651,417.624 565.651,414.212 581.354,423.275 				"/>
				<polygon fill="#FFFFFF" points="581.354,447.494 565.651,438.429 565.651,435.016 581.354,444.085 				"/>
				<polygon fill="#FFFFFF" points="581.354,482.166 565.651,473.101 565.651,469.688 581.354,478.755 				"/>
				<polygon fill="#FFFFFF" points="581.354,461.363 565.651,452.298 565.651,448.885 581.354,457.951 				"/>
				<polygon fill="#FFFFFF" points="581.354,468.3 565.651,459.231 565.651,455.818 581.354,464.885 				"/>
				<polygon fill="#FFFFFF" points="581.354,475.235 565.651,466.167 565.651,462.752 581.354,471.821 				"/>
				<polygon fill="#FFFFFF" points="581.354,454.428 565.651,445.361 565.651,441.949 581.354,451.018 				"/>
			</g>
			<g>
				<polygon fill="#FFFFFF" points="604.784,461.02 589.081,451.954 589.081,448.539 604.784,457.607 				"/>
				<polygon fill="#FFFFFF" points="604.784,495.691 589.081,486.626 589.081,483.212 604.784,492.28 				"/>
				<polygon fill="#FFFFFF" points="604.784,474.889 589.081,465.82 589.081,462.411 604.784,471.479 				"/>
				<polygon fill="#FFFFFF" points="604.784,481.822 589.081,472.757 589.081,469.342 604.784,478.41 				"/>
				<polygon fill="#FFFFFF" points="604.784,488.759 589.081,479.692 589.081,476.275 604.784,485.344 				"/>
				<polygon fill="#FFFFFF" points="604.784,467.953 589.081,458.89 589.081,455.475 604.784,464.543 				"/>
			</g>
		</g>
	</g>
	<text transform="matrix(1 0.5774 0 1 452.2627 344.5576)" fill="#FFFFFF" font-family="'Montserrat-Bold'" font-size="31.3255">C++</text>
</g>
</svg>
